<svg width="44" height="44" viewBox="0 0 44 44" fill="none" xmlns="http://www.w3.org/2000/svg">
<rect width="44" height="44" rx="14" fill="#F4F9FD"/>
<path fill-rule="evenodd" clip-rule="evenodd" d="M24 15C24 16.1046 23.1046 17 22 17C20.8954 17 20 16.1046 20 15C20 13.8954 20.8954 13 22 13C23.1046 13 24 13.8954 24 15ZM24 22C24 23.1046 23.1046 24 22 24C20.8954 24 20 23.1046 20 22C20 20.8954 20.8954 20 22 20C23.1046 20 24 20.8954 24 22ZM22 31C23.1046 31 24 30.1046 24 29C24 27.8954 23.1046 27 22 27C20.8954 27 20 27.8954 20 29C20 30.1046 20.8954 31 22 31Z" fill="#0A1629"/>
</svg>
